<svg width="24" height="24" viewBox="0 0 24 24" fill="none" xmlns="http://www.w3.org/2000/svg">
<g opacity="0.5">
<rect width="24" height="24" fill="white" fill-opacity="0.01"/>
<path fill-rule="evenodd" clip-rule="evenodd" d="M10 3C9.44775 3 9 3.44769 9 4C9 4.55231 9.44775 5 10 5H11V6.06189C7.05359 6.55396 4 9.92041 4 14C4 18.0796 7.05359 21.446 11 21.9381C11.3276 21.9789 11.6614 22 12 22C16.4183 22 20 18.4183 20 14C20 9.92041 16.9464 6.55396 13 6.06189V5H14C14.5522 5 15 4.55231 15 4C15 3.44769 14.5522 3 14 3H10ZM11 19.9171C11.3252 19.9716 11.6593 20 12 20C15.3137 20 18 17.3137 18 14C18 10.6863 15.3137 8 12 8C11.6593 8 11.3252 8.02838 11 8.08295C8.16223 8.55902 6 11.027 6 14C6 16.973 8.16223 19.441 11 19.9171ZM13 11.1055C13 10.5532 12.5527 10.1055 12 10.1055C11.4473 10.1055 11 10.5532 11 11.1055V14.2964C11 14.8645 11.3203 15.384 11.8301 15.6382L13.5527 16.5C14.0469 16.7468 14.6465 16.5466 14.8945 16.0527C15.1406 15.5586 14.9414 14.958 14.4473 14.7109L13 13.9875V11.1055Z" fill="#535374"/>
</g>
</svg>
