<svg width="24" height="24" viewBox="0 0 24 24" fill="none" xmlns="http://www.w3.org/2000/svg">
<g opacity="0.5">
<rect width="24" height="24" fill="white" fill-opacity="0.01"/>
<path fill-rule="evenodd" clip-rule="evenodd" d="M6 2C4.89539 2 4 2.89545 4 4V6C4 7.10455 4.89539 8 6 8H6.07324C6.28931 9.42279 6.96765 10.5038 7.89355 11.337C8.97632 12.3115 10.3779 12.9282 11.6287 13.4285C11.8805 13.5292 12.1249 13.6249 12.3612 13.7175C13.3666 14.1111 14.2261 14.4477 14.9025 14.8761C15.4688 15.2347 15.7917 15.5858 15.9259 16.0013C14.8556 16.0403 14 16.9202 14 18V20C14 21.1046 14.8954 22 16 22H18C19.1046 22 20 21.1046 20 20V18C20 16.8954 19.1046 16 18 16H17.9681C17.796 14.6842 16.95 13.8054 15.9725 13.1864C15.1168 12.6445 14.027 12.2194 13.0123 11.8236L13.0093 11.8224L12.9755 11.8093C12.77 11.7291 12.5677 11.6501 12.3713 11.5715C11.1221 11.0718 10.0237 10.5635 9.23145 9.85046C8.69397 9.36676 8.29004 8.78247 8.10742 7.99719C9.16211 7.94135 10 7.06848 10 6V4C10 2.89545 9.10461 2 8 2H6ZM8 4H6V6H8V4ZM6 16C4.89539 16 4 16.8954 4 18V20C4 21.1046 4.89539 22 6 22H8C9.10461 22 10 21.1046 10 20V18C10 16.8954 9.10461 16 8 16V14C8 13.6412 7.77417 13.5105 7.42993 13.3112C7.04968 13.091 6.52478 12.7872 6 12V16ZM8 18H6V20H8V18ZM16 18H18V20H16V18Z" fill="#535374"/>
</g>
</svg>
