<svg width="24" height="24" viewBox="0 0 24 24" fill="none" xmlns="http://www.w3.org/2000/svg">
<g opacity="0.5">
<rect width="24" height="24" fill="white" fill-opacity="0.01"/>
<path fill-rule="evenodd" clip-rule="evenodd" d="M9 4C9 3.44769 9.44775 3 10 3H14C14.5522 3 15 3.44769 15 4C15 4.55231 14.5522 5 14 5H13V6.06189C16.9464 6.55396 20 9.92041 20 14C20 18.4183 16.4183 22 12 22C11.6614 22 11.3276 21.9789 11 21.9381V19.9171C11.3252 19.9716 11.6593 20 12 20C15.3137 20 18 17.3137 18 14C18 10.6863 15.3137 8 12 8C11.6593 8 11.3252 8.02838 11 8.08295V7V6.06189V5H10C9.44775 5 9 4.55231 9 4ZM8 8C7.44775 8 7 8.44769 7 9C7 9.55231 7.44775 10 8 10H9C9.55225 10 10 9.55231 10 9C10 8.44769 9.55225 8 9 8H8ZM7 20C7 19.4477 7.44775 19 8 19H9C9.55225 19 10 19.4477 10 20C10 20.5523 9.55225 21 9 21H8C7.44775 21 7 20.5523 7 20ZM5 11C4.44775 11 4 11.4477 4 12C4 12.5523 4.44775 13 5 13H7C7.55225 13 8 12.5523 8 12C8 11.4477 7.55225 11 7 11H5ZM4 16C4 15.4477 4.44775 15 5 15H7C7.55225 15 8 15.4477 8 16C8 16.5523 7.55225 17 7 17H5C4.44775 17 4 16.5523 4 16Z" fill="#535374"/>
<path d="M12 10.1055C12.5527 10.1055 13 10.5532 13 11.1055V13.9875L14.4473 14.7109C14.9414 14.958 15.1406 15.5586 14.8945 16.0527C14.6465 16.5466 14.0469 16.7468 13.5527 16.5L11.8301 15.6382C11.3203 15.384 11 14.8645 11 14.2964V11.1055C11 10.5532 11.4473 10.1055 12 10.1055Z" fill="#535374"/>
</g>
</svg>
