<svg width="12" height="8" viewBox="0 0 12 8" fill="none" xmlns="http://www.w3.org/2000/svg">
<path d="M0.998962 6C0.998962 3.74207 2.80383 1.5 5.48853 1.5C8.61224 1.5 9.97815 4.17307 9.97815 6H11.975V5H10.8745C10.8412 4.83365 10.7998 4.66486 10.75 4.49515L12 4.01041L11.6398 3.07779L10.3911 3.56207C9.61469 1.95081 8.0387 0.5 5.48853 0.5C2.18579 0.5 -0.0010376 3.25793 -0.0010376 6H0.998962Z" fill="#6879BB"/>
<path fill-rule="evenodd" clip-rule="evenodd" d="M6.87457 3.42136C6.46436 3.14664 5.98199 3 5.48853 3C4.8269 3 4.19232 3.26337 3.72449 3.73221C3.25659 4.20105 2.99377 4.83694 2.99377 5.49997C2.99377 5.99445 3.14014 6.47781 3.41425 6.88892C3.68835 7.30005 4.07806 7.62051 4.53394 7.80975C4.98981 7.99896 5.49127 8.0484 5.97522 7.95193C6.45917 7.8555 6.90375 7.61737 7.25262 7.26776C7.60156 6.91812 7.83917 6.4726 7.93542 5.98764C8.03168 5.50269 7.9823 5.00018 7.79352 4.54337C7.60468 4.08655 7.28485 3.69604 6.87457 3.42136ZM6.66302 6.67694C6.35144 6.9892 5.92926 7.16531 5.48853 7.16663C5.04742 7.16663 4.62433 6.99112 4.31244 6.67856C4.00049 6.366 3.82538 5.94202 3.82538 5.49997C3.82538 5.05795 4.00049 4.63397 4.31244 4.32141C4.62433 4.00885 5.04742 3.83331 5.48853 3.83331C5.55811 3.83475 5.62756 3.84033 5.69647 3.85001C5.47015 3.8869 5.2583 3.9856 5.08435 4.13525C4.91034 4.28488 4.78088 4.47961 4.71014 4.69818C4.63947 4.91675 4.63025 5.15076 4.68353 5.37424C4.73682 5.59772 4.85059 5.80212 5.01227 5.96506C5.17389 6.12802 5.37708 6.24323 5.59979 6.29791C5.82251 6.3526 6.05615 6.34473 6.27466 6.27512C6.49316 6.20554 6.68829 6.0769 6.83868 5.90341C6.98901 5.72995 7.08862 5.51822 7.12677 5.29166C7.13965 5.36047 7.14801 5.43005 7.15173 5.49997C7.15039 5.94159 6.97467 6.36465 6.66302 6.67694Z" fill="#6879BB"/>
</svg>
