<svg width="12" height="5" viewBox="0 0 12 5" fill="none" xmlns="http://www.w3.org/2000/svg">
<path d="M0.334437 3.03842L-2.94905e-05 2.34619L1.36085 1.66147C0.653818 0.953779 0.167203 0.384615 0.167203 0.384615C0.167203 0.384615 0.296409 0.238462 0.50928 0C1.72411 1 3.6923 3 5.99999 3V5H5.53844V4C4.8793 3.94225 4.19767 3.93953 3.65683 3.55394L2.71413 4.50008L2.1818 3.96146L3.01815 3.11542L1.85494 2.26919L0.334437 3.03842Z" fill="#6879BB"/>
<path d="M11.6655 3.03842L12 2.34619L10.6391 1.66147C11.3462 0.953779 11.8328 0.384615 11.8328 0.384615C11.8328 0.384615 11.7036 0.238462 11.4907 0C10.2759 1 8.30767 3 5.99999 3V5H6.46152V4C7.12067 3.94225 7.8023 3.93953 8.34314 3.55394L9.28584 4.50008L9.81817 3.96146L8.98182 3.11542L10.145 2.26919L11.6655 3.03842Z" fill="#6879BB"/>
</svg>
