<svg width="24" height="24" viewBox="0 0 24 24" fill="none" xmlns="http://www.w3.org/2000/svg">
<path d="M0 0H24V24H0V0Z" fill="white" fill-opacity="0.01"/>
<path fill-rule="evenodd" clip-rule="evenodd" d="M16.8372 8.00003C16.7452 5.86318 15.6241 4.6401 13 3C12.6213 2.82547 12.4989 3.031 12.3145 3.3403C12.0382 3.80371 11.623 4.5 10 4.5C7.25854 4.5 7.23511 5.81643 7.20483 7.51126C7.20203 7.67108 7.1991 7.83425 7.19385 8.00003C6.5 8.00003 6.5 9.24972 6.5 10C6.5 10.6626 7 12 7.25476 12C7.63342 13.512 8.41003 14.6039 9.41931 15.2611L9.04126 16.7732C9.01917 16.8057 8.99939 16.8397 8.98218 16.8751C8.45508 16.8782 7.35583 17.0203 6.36023 17.5803C5.31702 18.1671 4.375 19.2294 4.375 21V21.625H19.625V21C19.625 19.1565 18.375 18.1137 17.2795 17.566C16.7266 17.2895 16.1803 17.1196 15.7766 17.0186C15.5735 16.9679 15.4031 16.9337 15.2817 16.9121C15.2209 16.9012 15.1722 16.8935 15.1377 16.8883C15.1204 16.8856 15.1064 16.8837 15.0963 16.8823L15.0841 16.8807L15.0801 16.8802L15.0786 16.88L15.0775 16.8798L15.0389 16.875H14.9841L14.5806 15.2612C15.59 14.604 16.3666 13.512 16.7452 12C17 12 17.5 10.6626 17.5 10C17.5 9.27136 17.5 8.00003 16.8372 8.00003ZM13.1617 18.8908C13.6381 18.7897 14.0162 18.6208 14.307 18.3947C14.3612 18.3525 14.4116 18.3089 14.4586 18.2641C14.5035 18.2375 14.5452 18.2123 14.5833 18.1889C14.621 18.1658 14.6553 18.1443 14.6858 18.125H14.9553C14.9794 18.1286 15.0159 18.1344 15.062 18.1426C15.1594 18.16 15.3015 18.1884 15.4734 18.2313C15.8197 18.3179 16.2734 18.4605 16.7205 18.684C17.4492 19.0483 18.0775 19.5782 18.2943 20.375H5.6842C5.85474 19.527 6.37366 19.007 6.97302 18.6697C7.74402 18.2361 8.63086 18.125 9 18.125H9.31421C9.34473 18.1443 9.37903 18.1658 9.41675 18.1889C9.58008 18.2892 9.80994 18.4232 10.076 18.5577C10.5809 18.8131 11.3195 19.125 12 19.125C12.3864 19.125 12.7914 19.0245 13.1617 18.8908ZM13.996 17.0822C13.9969 17.0729 13.9977 17.0637 13.9983 17.0545L13.6638 15.7171C13.1433 15.9052 12.5834 16 12 16C11.4166 16 10.8566 15.9052 10.3361 15.7171L9.99597 17.0772C10.0186 17.0914 10.0436 17.1069 10.0707 17.1236C10.2128 17.2108 10.412 17.3268 10.6401 17.4423C11.124 17.6869 11.6355 17.875 12 17.875C12.3645 17.875 12.876 17.6869 13.3599 17.4423C13.588 17.3268 13.7872 17.2108 13.9293 17.1236C13.9532 17.1089 13.9756 17.095 13.996 17.0822ZM13.0754 4.84176C12.8529 5.08413 12.5612 5.33047 12.1724 5.53366C11.5728 5.84704 10.8538 6 10 6C9.36121 6 9.04834 6.08706 8.91528 6.14639C8.83948 6.18017 8.83679 6.19418 8.83557 6.20022C8.83545 6.20105 8.83533 6.20172 8.83496 6.20227C8.80688 6.25836 8.7583 6.40417 8.73193 6.75451C8.71411 6.98855 8.71045 7.20715 8.70593 7.47439V7.47604V7.47753C8.70312 7.64361 8.69995 7.82852 8.69312 8.04757L8.64697 9.50003H8.00659C8.00024 9.66238 8 9.82733 8 9.99893V10L8.00024 10.0027C8.00085 10.0111 8.00232 10.0316 8.0072 10.0657C8.01404 10.1148 8.02576 10.1776 8.04309 10.2521C8.06165 10.3319 8.08459 10.4161 8.1106 10.5H8.42542L8.70984 11.6356C9.21521 13.6532 10.5237 14.5 12 14.5C13.4763 14.5 14.7848 13.6532 15.2902 11.6356L15.5746 10.5H15.8894C15.9154 10.4161 15.9384 10.3319 15.9569 10.2521C15.9742 10.1776 15.986 10.1148 15.9928 10.0657C15.9993 10.0201 16 9.99893 16 9.99893C16 9.83041 15.9998 9.66482 15.9934 9.50003H15.4004L15.3386 8.06457C15.3052 7.28848 15.1019 6.75927 14.6949 6.24847C14.3547 5.82147 13.8459 5.37466 13.0754 4.84176ZM8.3092 10.9984C8.31323 11.0045 8.31348 11.0055 8.3103 11.0002L8.3092 10.9984ZM15.6897 11.0002C15.6865 11.0055 15.6868 11.0045 15.6908 10.9984L15.6897 11.0002Z" fill="#6879BB"/>
</svg>
