<svg width="24" height="24" viewBox="0 0 24 24" fill="none" xmlns="http://www.w3.org/2000/svg">
<rect width="24" height="24" fill="white" fill-opacity="0.01"/>
<path fill-rule="evenodd" clip-rule="evenodd" d="M12 4C7.58167 4 4 7.58173 4 12C4 16.4183 7.58167 20 12 20C14.0289 20 15.8813 19.2448 17.2916 18H17V17H18V17.2917C18.0841 17.1964 18.1659 17.0992 18.2454 17H18V16H18.9298C18.9536 15.9589 18.9769 15.9176 19 15.876V15H19.4185C19.5493 14.6766 19.6597 14.3428 19.7479 14H19V13H19.9381C19.979 12.6724 20 12.3387 20 12H19V11H19.9382C19.9054 10.736 19.8596 10.4763 19.8018 10.2213L21.7522 9.77872C21.9146 10.494 22 11.2376 22 12C22 17.5229 17.5228 22 12 22C6.47717 22 2 17.5229 2 12C2 6.47714 6.47717 2 12 2C12.7623 2 13.506 2.08548 14.2213 2.2478L13.7787 4.19821C13.2076 4.06863 12.6124 4 12 4ZM18 13V12H19V13H18ZM18 14V13H17V12H16V13H15V14H14V13H13V14H14V15H15V16H16V17H17V16H18V15H19V14H18ZM17 14V13H16V14H15V15H16V16H17V15H18V14H17ZM17 14V15H16V14H17ZM16.4451 3.04004L15.5748 2.60754L15.1177 3.46506L16 3.93555C15.1177 3.46506 15.1177 3.46512 15.1174 3.46552L15.1168 3.46658L15.1147 3.47046L15.1069 3.4852L15.077 3.5416L14.9652 3.75385C14.8694 3.93646 14.7333 4.19742 14.5715 4.51193C14.2487 5.1402 13.822 5.9859 13.4099 6.84979C13.0005 7.70834 12.5951 8.60666 12.3219 9.33331C12.1873 9.69131 12.0704 10.0448 12.0068 10.3469C11.9758 10.4944 11.9471 10.6762 11.9517 10.8625C11.9551 11.0042 11.9795 11.3936 12.293 11.7071C12.6064 12.0206 12.996 12.045 13.1376 12.0484C13.3239 12.0529 13.5057 12.0242 13.6531 11.9932C13.9552 11.9296 14.3087 11.8128 14.6667 11.6782C15.3934 11.405 16.2917 10.9996 17.1503 10.5901C18.0142 10.1781 18.8599 9.7514 19.4882 9.4285C19.8027 9.26685 20.0636 9.13074 20.2462 9.03488C20.3375 8.98694 20.4093 8.94907 20.4585 8.92303L20.5149 8.89316L20.5297 8.88531L20.5334 8.88324L20.5345 8.88269C20.5349 8.88248 20.535 8.88245 20.0646 8.00003L20.535 8.88245L21.3926 8.42523L20.9601 7.55499C19.9891 5.60126 18.3988 4.01096 16.4451 3.04004ZM16.3505 5.42618L16.4048 5.32062C17.3076 5.91736 18.0828 6.69244 18.6794 7.59534L18.574 7.64969C17.9557 7.96741 17.129 8.38443 16.2893 8.78491C15.6021 9.1127 14.9204 9.42245 14.343 9.6571C14.5776 9.07965 14.8873 8.39804 15.2152 7.71075C15.6156 6.87103 16.0327 6.04437 16.3505 5.42618Z" fill="#6879BB"/>
</svg>
